Patient4_TMGait_0pt2_01_right_04_GRF.mot
version=1
nRows=65
nColumns=19
inDegrees=no
endheader
time	F1x	F1y	F1z	M1x	M1y	M1z	F2x	F2y	F2z	M2x	M2y	M2z	EC1x	EC1y	EC1z	EC2x	EC2y	EC2z
7.03	9.7259	669.014	38.805	-235.3248	-33.6878	686.5785	6.915	140.0094	-15.5251	50.364	12.6952	131.2064	-0.0592	0.0182	-0.0073	-0.0462	0.0165	0.9585
7.0528	9.6893	685.825	41.1821	-241.0706	-35.751	701.842	4.85	126.452	-14.1404	45.397	12.0489	118.4591	-0.0592	0.0182	-0.0073	-0.0462	0.0165	0.9585
7.0756	9.9659	704.9881	43.9401	-247.5517	-38.0244	719.1954	2.5806	110.4194	-12.5217	39.5517	11.2518	103.4587	-0.0592	0.0182	-0.0073	-0.0462	0.0165	0.9585
7.0984	10.6047	724.8975	46.9264	-254.2094	-40.3565	737.0857	0.28895	92.7974	-10.7159	33.1577	10.2929	87.0352	-0.0592	0.0182	-0.0073	-0.0462	0.0165	0.9585
7.1211	11.5998	743.6993	49.9564	-260.4076	-42.5832	753.7092	-1.7763	74.6462	-8.7916	26.6027	9.1551	70.1663	-0.0592	0.0182	-0.0073	-0.0462	0.0165	0.9585
7.1439	12.8883	759.6511	52.8296	-265.5561	-44.5423	767.3758	-3.3199	57.0622	-6.8443	20.2804	7.8255	53.8564	-0.0592	0.0182	-0.0073	-0.0462	0.0165	0.9585
7.1667	14.3673	771.4208	55.3487	-269.2158	-46.0847	776.8134	-4.0881	41.0671	-4.9881	14.5518	6.3197	39.0333	-0.0592	0.0182	-0.0073	-0.0462	0.0165	0.9585
7.1895	15.9284	778.293	57.3507	-271.1706	-47.0909	781.3594	-4.0207	27.4977	-3.3447	9.7087	4.73	26.4459	-0.0592	0.0182	-0.0073	-0.0462	0.0165	0.9585
7.2123	17.5043	780.3125	58.724	-271.4727	-47.4741	781.079	-3.397	16.8354	-2.0183	5.9153	3.2485	16.5139	-0.0592	0.0182	-0.0073	-0.0462	0.0165	0.9585
7.2351	19.1079	778.3329	59.4196	-270.4552	-47.1786	776.7948	-2.5494	8.972	-1.0385	3.1267	2.0135	9.1205	-0.0592	0.0182	-0.0073	-0.0462	0.0165	0.9585
7.2579	20.8313	773.8602	59.4632	-268.6735	-46.2003	769.9269	-1.6817	3.3717	-0.36169	1.1458	1.0502	3.7456	-0.0592	0.0182	-0.0073	-0.0462	0.0165	0.9585
7.2806	22.7968	768.646	58.9658	-266.7577	-44.6132	762.0996	-0.89615	-0.64498	0.083663	-0.27413	0.3216	-0.26445	-0.0592	0.0182	-0.0073	-0.0462	0.0165	0.9585
7.3034	25.1107	764.2419	58.1031	-265.2572	-42.5585	754.7382	-0.2248	-3.6932	0.37142	-1.3558	-0.23258	-3.4876	-0.0592	0.0182	-0.0073	-0.0462	0.0165	0.9585
7.3262	27.8365	761.6294	57.0728	-264.5083	-40.2128	748.7355	0.33898	-6.1757	0.55747	-2.2437	-0.66239	-6.2807	-0.0592	0.0182	-0.0073	-0.0462	0.0165	0.9585
7.349	30.9827	761.0011	56.0578	-264.5576	-37.7555	744.259	0.81366	-8.1707	0.67145	-2.9644	-0.99436	-8.6583	-0.0592	0.0182	-0.0073	-0.0462	0.0165	0.9585
7.3718	34.4978	761.7097	55.2063	-265.1471	-35.3489	740.7112	1.2093	-9.3394	0.70954	-3.3938	-1.2167	-10.1898	-0.0592	0.0182	-0.0073	-0.0462	0.0165	0.9585
7.3946	38.2834	762.4207	54.6231	-265.7691	-33.1289	736.8758	1.5102	-8.8522	0.62691	-3.231	-1.2634	-9.9113	-0.0592	0.0182	-0.0073	-0.0462	0.0165	0.9585
7.4174	42.2052	761.382	54.3525	-265.7628	-31.1883	731.177	1.6623	-5.3483	0.33343	-1.9825	-1.0032	-6.2742	-0.0592	0.0182	-0.0073	-0.0462	0.0165	0.9585
7.4401	46.0764	756.6726	54.365	-264.4092	-29.5696	721.9344	1.5641	3.036	-0.29982	1.0282	-0.2447	2.8364	-0.0592	0.0182	-0.0073	-0.0462	0.0165	0.9585
7.4629	49.6458	746.4293	54.5498	-261.016	-28.2634	707.5854	1.0599	18.5269	-1.4283	6.6092	1.2564	19.9531	-0.0592	0.0182	-0.0073	-0.0462	0.0165	0.9585
7.4857	52.5993	729.0174	54.7243	-254.9797	-27.22	686.8387	-0.054584	43.3886	-3.2088	15.5839	3.7693	47.674	-0.0592	0.0182	-0.0073	-0.0462	0.0165	0.9585
7.5085	54.554	703.1232	54.6536	-245.8242	-26.3731	658.7549	-2.0131	79.3406	-5.7563	28.5794	7.5288	88.0221	-0.0592	0.0182	-0.0073	-0.0462	0.0165	0.9585
7.5313	55.0771	667.901	54.0423	-233.2634	-25.6275	622.8471	-5.1073	126.7009	-9.0759	45.719	12.6614	141.4898	-0.0592	0.0182	-0.0073	-0.0462	0.0165	0.9585
7.5541	53.8188	623.2753	52.553	-217.3089	-24.826	579.2792	-9.7901	183.3806	-12.9723	66.258	19.1103	205.8866	-0.0592	0.0182	-0.0073	-0.0462	0.0165	0.9585
7.5769	50.7227	570.4548	49.954	-198.4343	-23.7944	529.2318	-16.1254	244.5139	-17.1851	88.4328	26.5834	275.8789	-0.0592	0.0182	-0.0073	-0.0462	0.0165	0.9585
7.5996	46.1346	512.3781	46.304	-177.717	-22.46	475.2638	-23.4792	304.6923	-21.5361	110.2593	34.606	345.396	-0.0592	0.0182	-0.0073	-0.0462	0.0165	0.9585
7.6224	40.6875	453.1154	41.9391	-156.6261	-20.8724	420.8245	-31.001	360.9048	-25.6816	130.6243	42.4503	410.9191	-0.0592	0.0182	-0.0073	-0.0462	0.0165	0.9585
7.6452	35.0215	396.3669	37.2381	-136.4974	-19.1008	369.0013	-37.9526	411.8819	-29.3029	149.0436	49.4622	470.8044	-0.0592	0.0182	-0.0073	-0.0462	0.0165	0.9585
7.668	29.6071	344.539	32.4917	-118.2018	-17.1974	321.7679	-43.7882	457.1016	-32.349	165.2795	55.355	524.1864	-0.0592	0.0182	-0.0073	-0.0462	0.0165	0.9585
7.6908	24.7209	298.6375	27.9112	-102.1003	-15.2247	279.9023	-48.1134	496.5874	-34.9717	179.2781	60.1269	570.7694	-0.0592	0.0182	-0.0073	-0.0462	0.0165	0.9585
7.7136	20.4865	258.5914	23.6569	-88.1597	-13.2669	243.2615	-50.7118	530.8212	-37.3502	191.167	63.8799	610.7876	-0.0592	0.0182	-0.0073	-0.0462	0.0165	0.9585
7.7364	16.9138	223.8506	19.8452	-76.1669	-11.4203	211.3155	-51.5209	560.5997	-39.6119	201.2227	66.7281	644.9063	-0.0592	0.0182	-0.0073	-0.0462	0.0165	0.9585
7.7591	13.9164	193.9928	16.5419	-65.9466	-9.7757	183.6971	-50.6173	586.7844	-41.7957	209.7896	68.7533	673.9904	-0.0592	0.0182	-0.0073	-0.0462	0.0165	0.9585
7.7819	11.3462	169.0029	13.7861	-57.4611	-8.423	160.4436	-48.265	610.02	-43.808	217.1823	69.9729	698.8396	-0.0592	0.0182	-0.0073	-0.0462	0.0165	0.9585
7.8047	9.0553	149.1644	11.6236	-50.7735	-7.4583	141.8719	-44.9341	630.5255	-45.4221	223.6016	70.3419	719.9539	-0.0592	0.0182	-0.0073	-0.0462	0.0165	0.9585
7.8275	6.9746	134.7542	10.1105	-45.9469	-6.9616	128.2799	-41.201	648.0697	-46.3335	229.1027	69.7734	737.4392	-0.0592	0.0182	-0.0073	-0.0462	0.0165	0.9585
7.8503	5.1571	125.6956	9.2834	-42.9326	-6.9559	119.6266	-37.5988	662.1327	-46.2517	233.6128	68.1759	751.0884	-0.0592	0.0182	-0.0073	-0.0462	0.0165	0.9585
7.8731	3.7567	121.271	9.1112	-41.4712	-7.37	115.263	-34.508	672.1414	-45.0529	236.9717	65.5642	760.5423	-0.0592	0.0182	-0.0073	-0.0462	0.0165	0.9585
7.8959	2.9627	119.9137	9.4713	-41.0213	-8.0383	113.7371	-32.1226	677.7299	-42.9118	239.0054	62.1827	765.5371	-0.0592	0.0182	-0.0073	-0.0462	0.0165	0.9585
7.9186	2.8556	119.313	10.1568	-40.7943	-8.7512	112.8952	-30.4514	679.1268	-40.2732	239.688	58.486	766.3191	-0.0592	0.0182	-0.0073	-0.0462	0.0165	0.9585
7.9414	3.2737	117.0034	10.8983	-39.9559	-9.3194	110.4463	-29.3638	677.4737	-37.6803	239.3095	54.9906	764.0213	-0.0592	0.0182	-0.0073	-0.0462	0.0165	0.9585
7.9642	3.8451	111.1885	11.4133	-37.9075	-9.6101	104.737	-28.6591	674.7699	-35.5702	238.505	52.0902	760.6411	-0.0592	0.0182	-0.0073	-0.0462	0.0165	0.9585
7.987	4.1739	101.2943	11.4872	-34.4703	-9.5585	95.2501	-28.1453	673.4496	-34.1689	238.1228	49.9756	758.6283	-0.0592	0.0182	-0.0073	-0.0462	0.0165	0.9585
8.0098	4.0032	87.9606	11.0301	-29.8778	-9.167	82.5879	-27.6857	675.7698	-33.5056	239.0013	48.6605	760.2626	-0.0592	0.0182	-0.0073	-0.0462	0.0165	0.9585
8.0326	3.2671	72.576	10.0803	-24.6102	-8.4956	68.0473	-27.1971	683.2582	-33.4569	241.7501	48.0178	767.0669	-0.0592	0.0182	-0.0073	-0.0462	0.0165	0.9585
8.0554	2.0892	56.7101	8.7604	-19.2017	-7.6224	53.0986	-26.6305	696.3801	-33.8188	246.597	47.8364	779.4452	-0.0592	0.0182	-0.0073	-0.0462	0.0165	0.9585
8.0781	0.73807	41.719	7.2232	-14.1081	-6.6065	39.0094	-25.9615	714.464	-34.4082	253.3281	47.9167	796.6151	-0.0592	0.0182	-0.0073	-0.0462	0.0165	0.9585
8.1009	-0.46642	28.5563	5.6161	-9.6455	-5.4817	26.663	-25.2009	735.8396	-35.1126	261.3256	48.1308	816.7707	-0.0592	0.0182	-0.0073	-0.0462	0.0165	0.9585
8.1237	-1.2648	17.7379	4.0666	-5.9839	-4.2802	16.5377	-24.4047	758.2152	-35.8802	269.7131	48.4167	837.4987	-0.0592	0.0182	-0.0073	-0.0462	0.0165	0.9585
8.1465	-1.5654	9.4326	2.6833	-3.1782	-3.0695	8.7909	-23.6574	779.1758	-36.697	277.555	48.7543	856.3011	-0.0592	0.0182	-0.0073	-0.0462	0.0165	0.9585
8.1693	-1.4907	3.5802	1.5594	-1.2046	-1.9768	3.3556	-23.022	796.6793	-37.5501	284.0634	49.1215	871.092	-0.0592	0.0182	-0.0073	-0.0462	0.0165	0.9585
8.1921	-1.2245	-0.12642	0.7339	0.043052	-1.1026	-0.065981	-22.4693	809.5025	-38.3865	288.7858	49.441	880.6307	-0.0592	0.0182	-0.0073	-0.0462	0.0165	0.9585
8.2149	-0.89765	-2.1541	0.18696	0.72484	-0.47427	-1.9225	-21.8457	817.476	-39.0898	291.6998	49.5465	884.7508	-0.0592	0.0182	-0.0073	-0.0462	0.0165	0.9585
8.2376	-0.58914	-3.0007	-0.13265	1.011	-0.070971	-2.6897	-20.9425	821.2946	-39.5006	293.13	49.219	884.1798	-0.0592	0.0182	-0.0073	-0.0462	0.0165	0.9585
8.2604	-0.34295	-3.1208	-0.28709	1.0553	0.15194	-2.7969	-19.603	822.0452	-39.4713	293.5426	48.2746	880.074	-0.0592	0.0182	-0.0073	-0.0462	0.0165	0.9585
8.2832	-0.17809	-2.8868	-0.33268	0.98358	0.24035	-2.593	-17.777	820.7507	-38.9361	293.3454	46.6462	873.5636	-0.0592	0.0182	-0.0073	-0.0462	0.0165	0.9585
8.306	-0.096003	-2.5832	-0.3138	0.89102	0.23429	-2.3423	-15.5312	818.0785	-37.9431	292.7698	44.4122	865.4625	-0.0592	0.0182	-0.0073	-0.0462	0.0165	0.9585
8.3288	-0.086212	-2.4114	-0.2637	0.84573	0.16936	-2.2338	-13.0333	814.272	-36.6387	291.8526	41.7768	856.2065	-0.0592	0.0182	-0.0073	-0.0462	0.0165	0.9585
8.3516	-0.13465	-2.5028	-0.20785	0.89307	0.077082	-2.3955	-10.5207	809.2642	-35.2331	290.4985	39.0318	845.952	-0.0592	0.0182	-0.0073	-0.0462	0.0165	0.9585
8.3744	-0.22322	-2.9294	-0.16603	1.0581	-0.014332	-2.9002	-8.2302	802.9071	-33.9384	288.5852	36.483	834.7562	-0.0592	0.0182	-0.0073	-0.0462	0.0165	0.9585
8.3971	-0.32629	-3.6908	-0.15404	1.3416	-0.07827	-3.75	-6.3328	795.225	-32.9056	286.0738	34.3616	822.7698	-0.0592	0.0182	-0.0073	-0.0462	0.0165	0.9585
8.4199	-0.41081	-4.7049	-0.18505	1.7148	-0.086942	-4.8608	-4.8805	786.556	-32.1897	283.0727	32.7668	810.3346	-0.0592	0.0182	-0.0073	-0.0462	0.0165	0.9585
8.4427	-0.43443	-5.7827	-0.27076	2.1084	-0.010422	-6.0395	-3.7772	777.5085	-31.7538	279.8252	31.652	797.9252	-0.0592	0.0182	-0.0073	-0.0462	0.0165	0.9585
8.4655	-0.33642	-6.5919	-0.42239	2.3995	0.1885	-6.9377	-2.8132	768.7828	-31.4989	276.637	30.8601	786.0009	-0.0592	0.0182	-0.0073	-0.0462	0.0165	0.9585
8.4883	-0.039254	-6.6173	-0.64878	2.3976	0.54914	-6.9997	-1.7369	760.9825	-31.2973	273.7912	30.1778	774.8776	-0.0592	0.0182	-0.0073	-0.0462	0.0165	0.9585
